<svg width="126" height="126" viewBox="0 0 126 126" fill="none" xmlns="http://www.w3.org/2000/svg">
<path d="M17.9807 80.9135C8.05022 70.9831 8.05022 54.8826 17.9807 44.9521L44.9518 17.981C54.8823 8.05059 70.9827 8.0506 80.9132 17.981L107.884 44.9521C117.815 54.8826 117.815 70.9831 107.884 80.9135L80.9132 107.884C70.9827 117.815 54.8823 117.815 44.9518 107.884L17.9807 80.9135Z" fill="white" fill-opacity="0.12"/>
<path d="M36.9368 51.7036V82.6041C36.9368 85.9737 35.9194 88.5392 33.8846 90.3005C31.8497 92.1002 29.2965 93 26.2251 93C24.8429 93 23.7679 92.9234 23 92.7703V86.0503C23.5375 86.1268 24.0366 86.1651 24.4973 86.1651C27.5304 86.1651 29.047 84.5569 29.047 81.3405V51.7036H36.9368ZM32.9631 46.9938C31.6193 46.9938 30.4483 46.5152 29.4501 45.5579C28.4519 44.5624 27.9528 43.3754 27.9528 41.9969C27.9528 40.6185 28.4519 39.4506 29.4501 38.4933C30.4483 37.4978 31.6193 37 32.9631 37C34.3837 37 35.5739 37.4978 36.5337 38.4933C37.5319 39.4506 38.0311 40.6185 38.0311 41.9969C38.0311 43.3754 37.5319 44.5624 36.5337 45.5579C35.5739 46.5152 34.3837 46.9938 32.9631 46.9938Z" fill="white"/>
<path d="M68.5161 76.7456C65.5598 79.6174 61.9892 81.0533 57.8043 81.0533C53.6194 81.0533 50.0488 79.6174 47.0925 76.7456C44.1362 73.8356 42.6581 70.2745 42.6581 66.0626C42.6581 61.8889 44.1362 58.347 47.0925 55.4369C50.0488 52.5268 53.6194 51.0718 57.8043 51.0718C61.9892 51.0718 65.5598 52.5268 68.5161 55.4369C71.4724 58.347 72.9506 61.8889 72.9506 66.0626C72.9506 70.2745 71.4724 73.8356 68.5161 76.7456ZM57.8043 73.7015C59.8392 73.7015 61.5285 72.9932 62.8723 71.5764C64.2544 70.1214 64.9455 68.2834 64.9455 66.0626C64.9455 63.8417 64.2544 62.0229 62.8723 60.6062C61.5285 59.1511 59.8392 58.4236 57.8043 58.4236C55.7311 58.4236 54.0034 59.1511 52.6212 60.6062C51.2774 62.0229 50.6055 63.8417 50.6055 66.0626C50.6055 68.2834 51.2774 70.1214 52.6212 71.5764C54.0034 72.9932 55.7311 73.7015 57.8043 73.7015Z" fill="white"/>
<path d="M91.8861 81.0533C87.4708 81.0533 83.8426 79.6366 81.0015 76.8031C78.1988 73.9696 76.7974 70.3703 76.7974 66.0051C76.7974 61.7166 78.218 58.1556 81.0591 55.3221C83.9386 52.4885 87.5668 51.0718 91.9437 51.0718C96.3589 51.0718 100.025 52.5843 102.943 55.6092C105.861 58.5959 107.205 62.693 106.975 67.9005H84.5145C84.6681 69.7002 85.4168 71.2127 86.7605 72.438C88.1043 73.625 89.9472 74.2185 92.2892 74.2185C93.7098 74.2185 94.9576 73.9504 96.0326 73.4144C97.146 72.84 97.933 72.055 98.3938 71.0595H106.629C105.785 74.0079 104.018 76.4202 101.331 78.2964C98.6433 80.1344 95.4951 81.0533 91.8861 81.0533ZM91.7133 57.4472C89.9088 57.4472 88.3923 57.9258 87.1637 58.8831C85.9735 59.8021 85.1864 61.0848 84.8025 62.7313H98.3362C97.9138 60.9316 97.0692 59.6106 95.8022 58.7682C94.5736 57.8875 93.2106 57.4472 91.7133 57.4472Z" fill="white"/>
</svg>
