<svg width="100%" height="34" viewBox="0 0 173 34" fill="none" xmlns="http://www.w3.org/2000/svg">
<path d="M16.6352 28.0896V33.6345H11.0901V28.0896H16.6352Z" fill="currentColor"></path>
<path d="M5.54507 5.91011L5.54507 11.455H0L2.42383e-07 5.91011L5.54507 5.91011Z" fill="currentColor"></path>
<path d="M5.54507 11.455V16.9998H0V11.455H5.54507Z" fill="currentColor"></path>
<path d="M5.54507 16.9998V22.5447H0V16.9998H5.54507Z" fill="currentColor"></path>
<path d="M16.6352 11.455V16.9998H11.0901V11.455H16.6352Z" fill="currentColor"></path>
<path d="M22.1803 11.455V16.9998H16.6352V11.455H22.1803Z" fill="currentColor"></path>
<path d="M27.7253 16.9998V22.5447H22.1803V16.9998H27.7253Z" fill="currentColor"></path>
<path d="M5.54507 0.365234L5.54507 5.91011L2.42383e-07 5.91011C2.42383e-07 2.84776 2.48261 0.365234 5.54507 0.365234Z" fill="currentColor"></path>
<path d="M38.8155 19.6614C35.753 19.6614 33.2704 22.1439 33.2704 25.2063V19.6614H38.8155Z" fill="currentColor"></path>
<path d="M27.7253 19.6614C30.7878 19.6614 33.2704 22.1439 33.2704 25.2063V19.6614H27.7253Z" fill="currentColor"></path>
<path d="M27.7253 19.6614C30.7878 19.6614 33.2704 17.1788 33.2704 14.1165V19.6614H27.7253Z" fill="currentColor"></path>
<path d="M38.8155 19.6614C35.753 19.6614 33.2704 17.1788 33.2704 14.1165V19.6614H38.8155Z" fill="currentColor"></path>
<path d="M27.7253 16.9998H22.1803V11.455C25.2427 11.455 27.7253 13.9375 27.7253 16.9998Z" fill="currentColor"></path>
<path d="M5.54507 11.455H11.0901V16.9998C8.02771 16.9998 5.54507 14.5173 5.54507 11.455Z" fill="currentColor"></path>
<path d="M22.1803 28.0896V22.5447H27.7253C27.7253 25.607 25.2427 28.0896 22.1803 28.0896Z" fill="currentColor"></path>
<path d="M22.1803 28.0896H16.6352V33.6345C19.6976 33.6345 22.1803 31.1519 22.1803 28.0896Z" fill="currentColor"></path>
<path d="M5.54507 28.0896H11.0901V33.6345C8.02771 33.6345 5.54507 31.1519 5.54507 28.0896Z" fill="currentColor"></path>
<path d="M0 22.5447H5.54507V28.0896C2.48261 28.0896 -1.33865e-07 25.607 0 22.5447Z" fill="currentColor"></path>
<path d="M38.8221 28.0896H48.5338C52.3532 28.0896 54.3328 26.2265 54.3328 23.362C54.3328 21.1496 53.0286 19.8688 51.5847 19.3564C52.7724 18.9139 53.9136 17.7495 53.9136 16.0495C53.9136 13.3247 52.0039 11.5548 48.3707 11.5548H38.8221V28.0896ZM47.7419 14.7453C49.1393 14.7453 49.8845 15.2344 49.8845 16.3755C49.8845 17.4933 49.116 18.0057 47.7419 18.0057H42.7114V14.7453H47.7419ZM47.8351 21.1962C49.4886 21.1962 50.3037 21.8017 50.3037 23.036C50.3037 24.2703 49.4886 24.8991 47.8351 24.8991H42.7114V21.1962H47.8351Z" fill="currentColor"></path>
<path d="M70.093 24.5963H60.3348V11.5548H56.3756V28.0896H70.093V24.5963Z" fill="currentColor"></path>
<path d="M79.0061 28.3691C83.9435 28.3691 87.7629 24.8525 87.7629 19.8222C87.7629 14.722 83.9435 11.2753 79.0061 11.2753C74.0455 11.2753 70.2261 14.722 70.2261 19.8222C70.2261 24.8525 74.0455 28.3691 79.0061 28.3691ZM79.0061 24.8292C76.1183 24.8292 74.2551 22.6401 74.2551 19.8222C74.2551 17.0276 76.1183 14.8152 79.0061 14.8152C81.9173 14.8152 83.7338 17.0509 83.7338 19.8222C83.7338 22.6168 81.9173 24.8292 79.0061 24.8292Z" fill="currentColor"></path>
<path d="M97.5072 28.3691C103.073 28.3691 105.03 24.4333 105.332 22.7798H101.327C100.954 23.4086 99.9526 24.8059 97.5072 24.8059C94.7591 24.8059 93.0823 22.5469 93.0823 19.8222C93.0823 17.0974 94.7591 14.8385 97.5072 14.8385C99.7896 14.8385 100.931 16.2358 101.303 16.8646H105.332C104.96 14.9782 102.864 11.2753 97.5072 11.2753C92.5466 11.2753 89.0299 14.885 89.0299 19.8222C89.0299 24.7593 92.5466 28.3691 97.5072 28.3691Z" fill="currentColor"></path>
<path d="M118.883 28.0896H124.287L115.507 19.5194L123.914 11.5548H118.767L111.198 18.7043V11.5548H107.239V28.0896H111.198V20.6606L118.883 28.0896Z" fill="currentColor"></path>
<path d="M136.151 11.5548H132.192V22.2209C132.192 23.7346 131.4 24.8525 129.816 24.8525C128.209 24.8525 127.441 23.7346 127.441 22.2209V18.1454H123.691V22.5702C123.691 26.1334 125.764 28.4156 129.816 28.4156C133.845 28.4156 136.151 26.1334 136.151 22.5702V11.5548Z" fill="currentColor"></path>
<path d="M146.923 28.3691C151.86 28.3691 155.679 24.8525 155.679 19.8222C155.679 14.722 151.86 11.2753 146.923 11.2753C141.962 11.2753 138.143 14.722 138.143 19.8222C138.143 24.8525 141.962 28.3691 146.923 28.3691ZM146.923 24.8292C144.035 24.8292 142.172 22.6401 142.172 19.8222C142.172 17.0276 144.035 14.8152 146.923 14.8152C149.834 14.8152 151.65 17.0509 151.65 19.8222C151.65 22.6168 149.834 24.8292 146.923 24.8292Z" fill="currentColor"></path>
<path d="M165.99 21.1496L173 11.5548H168.552L164.034 17.5632L159.539 11.5548H154.508L161.844 21.1263V28.0896H165.99V21.1496Z" fill="currentColor"></path>
</svg>